{"title":"Little.Boy.2015.720p.WEB-DL.DD5.1.H264-RARBG","uid":12193617,"size":3558030078,"categoryP":"video","categoryS":"hd___movies","magnet":"?xt=urn:btih:a9b216c409a43a2077f88d26ef6f58953f89975a&amp;dn=Little.Boy.2015.720p.WEB-DL.DD5.1.H264-RARBG&amp;tr=udp%3A%2F%2Ftracker.openbittorrent.com%3A80&amp;tr=udp%3A%2F%2Fopen.demonii.com%3A1337&amp;tr=udp%3A%2F%2Ftracker.coppersurfer.tk%3A6969&amp;tr=udp%3A%2F%2Fexodus.desync.com%3A6969","seeders":2,"leechers":1,"uploader":"vickey1992","files":5,"time":1438702271,"description":"Video\nID                                       : 1\nFormat                                   : AVC\nFormat/Info                              : Advanced Video Codec\nFormat profile                           : &lt;a class=&quot;__cf_email__&quot; href=&quot;/cdn-cgi/l/email-protection&quot; data-cfemail=&quot;90ddf1f9fed0dca3bea1&quot;&gt;[email&amp;#160;protected]&lt;/a&gt;&lt;script data-cfhash='f9e31' type=&quot;text/javascript&quot;&gt;\n/* &lt;![CDATA[ */!function(){try{var t=&quot;currentScript&quot;in document?document.currentScript:function(){for(var t=document.getElementsByTagName(&quot;script&quot;),e=t.length;e--;)if(t[e].getAttribute(&quot;data-cfhash&quot;))return t[e]}();if(t&amp;&amp;t.previousSibling){var e,r,n,i,c=t.previousSibling,a=c.getAttribute(&quot;data-cfemail&quot;);if(a){for(e=&quot;&quot;,r=parseInt(a.substr(0,2),16),n=2;a.length-n;n+=2)i=parseInt(a.substr(n,2),16)^r,e+=String.fromCharCode(i);e=document.createTextNode(e),c.parentNode.replaceChild(e,c)}t.parentNode.removeChild(t);}}catch(u){}}()/* ]]&gt; */&lt;/script&gt;\nFormat settings, CABAC                   : No\nFormat settings, ReFrames                : 2 frames\nCodec ID                                 : V_MPEG4/ISO/AVC\nDuration                                 : 1h 46mn\nBit rate                                 : 3 968 Kbps\nWidth                                    : 1 280 pixels\nHeight                                   : 532 pixels\nDisplay aspect ratio                     : 2.40:1\nFrame rate mode                          : Constant\nFrame rate                               : 23.976 fps\nColor space                              : YUV\nChroma subsampling                       : 4:2:0\nBit depth                                : 8 bits\nScan type                                : Progressive\nBits/(Pixel*Frame)                       : 0.243\nStream size                              : 2.96 GiB (89%)\nTitle                                    : Little.Boy.2015.720p.WEB-DL.DD5.1.H264-RARBG\nLanguage                                 : English\nDefault                                  : Yes\nForced                                   : No\nColor range                              : Limited\nColor primaries                          : BT.709\nTransfer characteristics                 : BT.709\nMatrix coefficients                      : BT.709\n\nAudio\nID                                       : 2\nFormat                                   : AC-3\nFormat/Info                              : Audio Coding 3\nMode extension                           : CM (complete main)\nFormat settings, Endianness              : Big\nCodec ID                                 : A_AC3\nDuration                                 : 1h 46mn\nBit rate mode                            : Constant\nBit rate                                 : 384 Kbps\nChannel(s)                               : 6 channels\nChannel positions                        : Front: L C R, Side: L R, LFE\nSampling rate                            : 48.0 KHz\nCompression mode                         : Lossy\nStream size                              : 293 MiB (9%)\nTitle                                    : Little.Boy.2015.720p.WEB-DL.DD5.1.H264-RARBG\nLanguage                                 : English\nDefault                                  : Yes\nForced                                   : No\n\nText\nID                                       : 3\nFormat                                   : UTF-8\nCodec ID                                 : S_TEXT/UTF8\nCodec ID/Info                            : UTF-8 Plain Text\nLanguage                                 : English\nDefault                                  : No\nForced                                   : No\n\nMenu\n00:00:00.000                             : en:1\n00:04:19.000                             : en:2\n00:09:31.000                             : en:3\n00:16:56.000                             : en:4\n00:21:38.000                             : en:5\n00:27:03.000                             : en:6\n00:33:20.000                             : en:7\n00:38:47.000                             : en:8\n00:42:31.000                             : en:9\n00:47:40.000                             : en:10\n00:50:37.000                             : en:11\n00:55:36.000                             : en:12\n01:02:41.000                             : en:13\n01:07:50.000                             : en:14\n01:12:30.000                             : en:15\n01:19:22.000                             : en:16\n01:24:08.000                             : en:17\n01:28:39.000                             : en:18\n01:32:53.000                             : en:19\n01:37:48.000                             : en:20","torrent":{"xt":"urn:btih:a9b216c409a43a2077f88d26ef6f58953f89975a","amp;dn":"Little.Boy.2015.720p.WEB-DL.DD5.1.H264-RARBG","amp;tr":["udp%3A%2F%2Ftracker.openbittorrent.com%3A80","udp%3A%2F%2Fopen.demonii.com%3A1337","udp%3A%2F%2Ftracker.coppersurfer.tk%3A6969","udp%3A%2F%2Fexodus.desync.com%3A6969"],"infoHash":"a9b216c409a43a2077f88d26ef6f58953f89975a","infoHashBuffer":{"type":"Buffer","data":[169,178,22,196,9,164,58,32,119,248,141,38,239,111,88,149,63,137,151,90]},"announce":[],"urlList":[]}}